<svg width="203" height="65" viewBox="0 0 203 65" fill="none" xmlns="http://www.w3.org/2000/svg">
<g clip-path="url(#clip0_1_15)">
<path d="M44.7761 56.4211C44.7761 56.4211 43.8956 56.5985 38.4365 56.4211C35.9711 56.0663 33.3296 55.1045 33.1535 55.0018C29.8077 53.0503 28.7511 51.7812 28.575 51.6311C26.2857 49.6796 28.2967 51.1967 24.3486 47.5507C22.2354 45.5992 20.3817 42.9381 19.77 41.8736C17.8329 38.5029 17.6568 37.9707 16.9524 35.1321C16.248 32.2936 15.8958 30.5195 16.0719 28.2132C16.248 25.9069 16.7763 23.4232 21.7071 20.7621C23.9338 19.5603 25.2198 19.0786 26.1096 18.8106C27.1901 18.4851 27.6945 18.2784 31.0403 18.101L31.0404 18.101C36.8542 17.7927 37.7321 17.7461 40.1975 18.101C45.4772 18.8608 46.7502 19.6376 50.5874 21.2943C54.2855 22.891 53.2289 22.3588 56.2226 24.1328C59.1422 25.863 60.449 27.5036 61.8577 29.4551C63.2967 31.4483 64.3231 36.0192 61.5055 41.3414C58.688 46.6637 56.0465 49.3865 55.3421 50.0344C51.2918 53.76 52.5245 52.8729 49.1786 54.8244C47.3183 55.9094 44.7761 56.4211 44.7761 56.4211Z" fill="#E3442F" fill-opacity="0.74"/>
<path d="M22.4115 10.2951C19.9461 11.3595 20.2983 11.1821 17.8329 12.9562C16.9895 13.9419 15.4905 14.9968 14.6632 16.6818C14.0511 17.9284 13.9102 19.5857 14.1349 21.4718C14.6632 24.1329 14.6632 25.5522 16.4242 29.4551C17.9365 32.807 19.3591 34.7182 19.77 35.3096C22.0593 38.2664 22.5876 40.6318 30.336 45.5993C31.0404 46.0509 33.5434 47.168 35.4429 47.5508C37.2039 47.9056 38.6127 47.5508 38.6127 47.5508C38.6127 47.5508 44.9798 46.7396 49.0026 44.18C52.3485 42.0511 53.0529 40.9867 54.1094 39.7448C54.4616 39.3308 55.166 38.6803 56.7509 36.1966C58.688 33.6538 61.9987 27.1488 59.7446 21.4718C59.6742 21.2944 58.688 19.5203 56.7509 17.3914C56.156 16.7375 54.1273 14.6111 51.1157 12.9562C48.9224 11.7509 48.4743 11.3452 46.5843 10.6499C45.6199 10.2951 42.4869 9.58543 42.4869 9.58543C42.4869 9.58543 38.7298 9.06795 37.2039 8.87579C33.7919 8.44612 32.0618 8.30808 28.3989 8.87579C27.5184 9.01226 24.3486 9.4587 22.4115 10.2951Z" fill="#56B8E1" fill-opacity="0.58"/>
<path d="M29.1033 14.9077C23.1159 15.7947 22.9398 15.8601 17.1285 18.6332C13.7827 20.2299 11.6695 23.0906 10.4368 24.4877C9.20406 25.8848 7.26697 31.2292 10.4368 36.1966C12.0998 38.8028 16.2481 44.5348 20.6505 47.3733C21.1788 47.7139 24.1725 50.3893 30.6882 52.3408C32.097 52.5182 35.2668 52.8857 38.6127 52.1633C40.4047 51.7765 41.7444 51.023 42.3108 50.6862C43.7195 49.8484 44.6 49.1474 45.6567 48.083C46.7133 47.0185 48.0776 45.8826 49.1786 44.3574C50.5874 42.4059 51.5067 40.8658 52.1723 39.7448C53.405 37.2611 53.8941 36.5514 54.4811 34.4225C55.3616 31.2292 56.287 26.5467 54.9064 23.7781C53.9333 21.8266 53.3751 21.1279 52.2454 19.8001C51.1157 18.4723 50.2352 17.7965 49.0025 17.0119C48.2981 16.5635 47.0654 15.5578 43.0151 14.7806C40.5498 14.3075 33.9717 14.1864 29.1033 14.9077Z" fill="#FFE423" fill-opacity="0.78"/>
<path d="M93.5977 27.604V36.5H92.4777V27.604C92.4777 25.396 91.6777 23.508 90.0777 21.94C88.4777 20.34 86.5897 19.54 84.3817 19.54C82.1737 19.54 80.2857 20.34 78.6857 21.94C77.1177 23.508 76.3177 25.396 76.3177 27.604V36.5H75.1977V11.668H76.3177V23.38C78.1097 20.308 80.8937 18.42 84.3817 18.42C86.9097 18.42 89.0537 19.316 90.8777 21.14C92.7017 22.964 93.5977 25.108 93.5977 27.604ZM114.721 18.708H115.841V27.636C115.841 30.164 114.945 32.34 113.121 34.132C111.297 35.924 109.153 36.82 106.657 36.82C104.129 36.82 101.953 35.924 100.129 34.132C98.3374 32.34 97.4414 30.164 97.4414 27.636V18.708H98.5934V27.636C98.5934 29.844 99.3934 31.764 100.961 33.332C102.529 34.9 104.449 35.7 106.657 35.7C108.833 35.7 110.721 34.9 112.321 33.332C113.921 31.764 114.721 29.844 114.721 27.636V18.708ZM137.325 26.324H123.949V25.172H135.917C135.405 23.508 134.413 22.164 132.973 21.14C131.533 20.084 129.933 19.572 128.237 19.572C126.157 19.572 124.301 20.372 122.637 22.004C121.005 23.604 120.173 25.492 120.173 27.636C120.173 29.844 120.973 31.732 122.541 33.332C124.109 34.9 126.029 35.7 128.237 35.7C130.637 35.7 132.653 34.804 134.253 32.98L135.085 33.748C133.037 35.796 130.765 36.82 128.237 36.82C125.709 36.82 123.565 35.924 121.741 34.1C119.949 32.276 119.053 30.132 119.053 27.636C119.053 25.108 119.949 22.932 121.741 21.14C123.533 19.348 125.709 18.452 128.237 18.452C130.509 18.452 132.493 19.188 134.221 20.692C135.949 22.196 136.973 24.052 137.325 26.324Z" fill="#504E4C"/>
<path d="M93.5977 36.5V36.8C93.7634 36.8 93.8977 36.6657 93.8977 36.5H93.5977ZM92.4777 36.5H92.1777C92.1777 36.6657 92.312 36.8 92.4777 36.8V36.5ZM90.0777 21.94L89.8655 22.1521L89.8677 22.1543L90.0777 21.94ZM78.6857 21.94L78.8978 22.1521L78.6857 21.94ZM76.3177 36.5V36.8C76.4834 36.8 76.6177 36.6657 76.6177 36.5H76.3177ZM75.1977 36.5H74.8977C74.8977 36.6657 75.032 36.8 75.1977 36.8V36.5ZM75.1977 11.668V11.368C75.032 11.368 74.8977 11.5023 74.8977 11.668H75.1977ZM76.3177 11.668H76.6177C76.6177 11.5023 76.4834 11.368 76.3177 11.368V11.668ZM76.3177 23.38H76.0177C76.0177 23.5155 76.1086 23.6342 76.2394 23.6696C76.3702 23.705 76.5085 23.6482 76.5768 23.5312L76.3177 23.38ZM90.8777 21.14L91.0898 20.9279L90.8777 21.14ZM93.2977 27.604V36.5H93.8977V27.604H93.2977ZM93.5977 36.2H92.4777V36.8H93.5977V36.2ZM92.7777 36.5V27.604H92.1777V36.5H92.7777ZM92.7777 27.604C92.7777 25.3141 91.9443 23.3492 90.2877 21.7257L89.8677 22.1543C91.4111 23.6668 92.1777 25.4779 92.1777 27.604H92.7777ZM90.2898 21.7279C88.6356 20.0736 86.6721 19.24 84.3817 19.24V19.84C86.5073 19.84 88.3198 20.6064 89.8656 22.1521L90.2898 21.7279ZM84.3817 19.24C82.0913 19.24 80.1278 20.0736 78.4736 21.7279L78.8978 22.1521C80.4436 20.6064 82.2561 19.84 84.3817 19.84V19.24ZM78.4736 21.7279C76.8507 23.3507 76.0177 25.3145 76.0177 27.604H76.6177C76.6177 25.4775 77.3847 23.6653 78.8978 22.1521L78.4736 21.7279ZM76.0177 27.604V36.5H76.6177V27.604H76.0177ZM76.3177 36.2H75.1977V36.8H76.3177V36.2ZM75.4977 36.5V11.668H74.8977V36.5H75.4977ZM75.1977 11.968H76.3177V11.368H75.1977V11.968ZM76.0177 11.668V23.38H76.6177V11.668H76.0177ZM76.5768 23.5312C78.3251 20.5341 81.0189 18.72 84.3817 18.72V18.12C80.7684 18.12 77.8943 20.0819 76.0586 23.2288L76.5768 23.5312ZM84.3817 18.72C86.8285 18.72 88.8967 19.5833 90.6656 21.3521L91.0898 20.9279C89.2107 19.0487 86.9908 18.12 84.3817 18.12V18.72ZM90.6656 21.3521C92.4348 23.1214 93.2977 25.1897 93.2977 27.604H93.8977C93.8977 25.0263 92.9685 22.8066 91.0898 20.9279L90.6656 21.3521ZM114.721 18.708V18.408C114.556 18.408 114.421 18.5423 114.421 18.708H114.721ZM115.841 18.708H116.141C116.141 18.5423 116.007 18.408 115.841 18.408V18.708ZM113.121 34.132L113.332 34.346L113.121 34.132ZM100.129 34.132L99.9173 34.3441L99.9192 34.346L100.129 34.132ZM97.4414 18.708V18.408C97.2758 18.408 97.1414 18.5423 97.1414 18.708H97.4414ZM98.5934 18.708H98.8934C98.8934 18.5423 98.7591 18.408 98.5934 18.408V18.708ZM100.961 33.332L101.174 33.1199L100.961 33.332ZM112.321 33.332L112.111 33.1177L112.321 33.332ZM114.721 19.008H115.841V18.408H114.721V19.008ZM115.541 18.708V27.636H116.141V18.708H115.541ZM115.541 27.636C115.541 30.0844 114.677 32.183 112.911 33.918L113.332 34.346C115.214 32.497 116.141 30.2436 116.141 27.636H115.541ZM112.911 33.918C111.141 35.6568 109.072 36.52 106.657 36.52V37.12C109.235 37.12 111.454 36.1912 113.332 34.346L112.911 33.918ZM106.657 36.52C104.209 36.52 102.108 35.6556 100.34 33.918L99.9192 34.346C101.799 36.1924 104.05 37.12 106.657 37.12V36.52ZM100.342 33.9199C98.6061 32.1844 97.7414 30.0848 97.7414 27.636H97.1414C97.1414 30.2432 98.0688 32.4956 99.9173 34.3441L100.342 33.9199ZM97.7414 27.636V18.708H97.1414V27.636H97.7414ZM97.4414 19.008H98.5934V18.408H97.4414V19.008ZM98.2934 18.708V27.636H98.8934V18.708H98.2934ZM98.2934 27.636C98.2934 29.9242 99.1255 31.9203 100.749 33.5441L101.174 33.1199C99.6614 31.6077 98.8934 29.7638 98.8934 27.636H98.2934ZM100.749 33.5441C102.373 35.1679 104.369 36 106.657 36V35.4C104.53 35.4 102.686 34.6321 101.174 33.1199L100.749 33.5441ZM106.657 36C108.916 36 110.878 35.1663 112.531 33.5463L112.111 33.1177C110.565 34.6337 108.751 35.4 106.657 35.4V36ZM112.531 33.5463C114.189 31.9218 115.021 29.9246 115.021 27.636H114.421C114.421 29.7634 113.654 31.6062 112.111 33.1177L112.531 33.5463ZM115.021 27.636V18.708H114.421V27.636H115.021ZM137.325 26.324V26.624C137.412 26.624 137.495 26.5857 137.552 26.5192C137.609 26.4527 137.635 26.3646 137.621 26.2781L137.325 26.324ZM123.949 26.324H123.649C123.649 26.4897 123.783 26.624 123.949 26.624V26.324ZM123.949 25.172V24.872C123.783 24.872 123.649 25.0063 123.649 25.172H123.949ZM135.917 25.172V25.472C136.012 25.472 136.101 25.4268 136.158 25.3502C136.215 25.2737 136.231 25.1748 136.203 25.0838L135.917 25.172ZM132.973 21.14L132.795 21.3819L132.799 21.3845L132.973 21.14ZM122.637 22.004L122.847 22.2182L122.847 22.2182L122.637 22.004ZM122.541 33.332L122.326 33.542L122.329 33.5441L122.541 33.332ZM134.253 32.98L134.456 32.7596C134.397 32.7047 134.318 32.6762 134.237 32.6804C134.156 32.6847 134.08 32.7214 134.027 32.7822L134.253 32.98ZM135.085 33.748L135.297 33.9601C135.355 33.9024 135.386 33.8236 135.385 33.742C135.383 33.6604 135.348 33.5829 135.288 33.5276L135.085 33.748ZM121.741 34.1L121.527 34.3103L121.529 34.3121L121.741 34.1ZM121.741 21.14L121.953 21.3521L121.741 21.14ZM134.221 20.692L134.418 20.4657L134.221 20.692ZM137.325 26.024H123.949V26.624H137.325V26.024ZM124.249 26.324V25.172H123.649V26.324H124.249ZM123.949 25.472H135.917V24.872H123.949V25.472ZM136.203 25.0838C135.671 23.3541 134.638 21.9562 133.147 20.8955L132.799 21.3845C134.187 22.3718 135.138 23.6619 135.63 25.2602L136.203 25.0838ZM133.15 20.8981C131.659 19.8046 129.997 19.272 128.237 19.272V19.872C129.869 19.872 131.406 20.3634 132.795 21.3819L133.15 20.8981ZM128.237 19.272C126.069 19.272 124.14 20.1094 122.427 21.7898L122.847 22.2182C124.461 20.6346 126.244 19.872 128.237 19.872V19.272ZM122.427 21.7898C120.742 23.4414 119.873 25.4048 119.873 27.636H120.473C120.473 25.5792 121.267 23.7666 122.847 22.2182L122.427 21.7898ZM119.873 27.636C119.873 29.926 120.706 31.8884 122.326 33.542L122.755 33.122C121.239 31.5756 120.473 29.762 120.473 27.636H119.873ZM122.329 33.5441C123.952 35.1679 125.948 36 128.237 36V35.4C126.109 35.4 124.265 34.6321 122.753 33.1199L122.329 33.5441ZM128.237 36C130.722 36 132.821 35.0675 134.478 33.1778L134.027 32.7822C132.485 34.5405 130.551 35.4 128.237 35.4V36ZM134.049 33.2004L134.881 33.9684L135.288 33.5276L134.456 32.7596L134.049 33.2004ZM134.873 33.5359C132.871 35.5369 130.673 36.52 128.237 36.52V37.12C130.857 37.12 133.202 36.0551 135.297 33.9601L134.873 33.5359ZM128.237 36.52C125.79 36.52 123.722 35.6567 121.953 33.8879L121.529 34.3121C123.408 36.1913 125.628 37.12 128.237 37.12V36.52ZM121.955 33.8898C120.216 32.1199 119.353 30.0507 119.353 27.636H118.753C118.753 30.2133 119.681 32.4321 121.527 34.3102L121.955 33.8898ZM119.353 27.636C119.353 25.1872 120.217 23.0876 121.953 21.3521L121.529 20.9279C119.68 22.7764 118.753 25.0288 118.753 27.636H119.353ZM121.953 21.3521C123.688 19.6166 125.788 18.752 128.237 18.752V18.152C125.629 18.152 123.377 19.0794 121.529 20.9279L121.953 21.3521ZM128.237 18.752C130.437 18.752 132.351 19.462 134.024 20.9183L134.418 20.4657C132.635 18.914 130.581 18.152 128.237 18.152V18.752ZM134.024 20.9183C135.698 22.3757 136.687 24.1678 137.028 26.3699L137.621 26.2781C137.258 23.9362 136.199 22.0163 134.418 20.4657L134.024 20.9183Z" fill="#504E4C"/>
<path d="M153.417 26.26V27.38H145.161V26.26H153.417Z" fill="#504E4C"/>
<path d="M153.417 26.26H153.717C153.717 26.0943 153.583 25.96 153.417 25.96V26.26ZM153.417 27.38V27.68C153.583 27.68 153.717 27.5457 153.717 27.38H153.417ZM145.161 27.38H144.861C144.861 27.5457 144.995 27.68 145.161 27.68V27.38ZM145.161 26.26V25.96C144.995 25.96 144.861 26.0943 144.861 26.26H145.161ZM153.117 26.26V27.38H153.717V26.26H153.117ZM153.417 27.08H145.161V27.68H153.417V27.08ZM145.461 27.38V26.26H144.861V27.38H145.461ZM145.161 26.56H153.417V25.96H145.161V26.56Z" fill="#504E4C"/>
<path d="M173.934 35.092L174.382 36.116C173.23 36.596 172.046 36.852 170.798 36.852C168.366 36.852 166.222 35.988 164.366 34.228C162.51 32.468 161.582 30.26 161.582 27.636C161.582 25.14 162.478 22.996 164.238 21.172C166.03 19.348 168.206 18.42 170.798 18.42C173.262 18.42 175.406 19.284 177.23 21.044C179.086 22.804 180.014 24.98 180.014 27.636V36.5H178.894V27.412C178.894 25.236 178.062 23.38 176.43 21.844C174.798 20.308 172.942 19.54 170.798 19.54C168.654 19.54 166.766 20.308 165.134 21.876C163.502 23.412 162.702 25.332 162.702 27.636C162.702 29.78 163.47 31.668 165.006 33.3C166.574 34.932 168.494 35.732 170.798 35.732C171.854 35.732 172.91 35.508 173.934 35.092ZM185.704 11.668V15.668H184.488V11.668H185.704ZM185.704 18.708V36.5H184.488V18.708H185.704Z" fill="#504E4C"/>
<path d="M173.934 35.092L174.209 34.9718C174.144 34.8228 173.972 34.7529 173.821 34.8141L173.934 35.092ZM174.382 36.116L174.497 36.3929C174.572 36.362 174.63 36.3025 174.66 36.2278C174.69 36.1531 174.689 36.0695 174.657 35.9958L174.382 36.116ZM164.366 34.228L164.16 34.4457L164.366 34.228ZM164.238 21.172L164.024 20.9617L164.022 20.9637L164.238 21.172ZM177.23 21.044L177.022 21.2599L177.024 21.2617L177.23 21.044ZM180.014 36.5V36.8C180.18 36.8 180.314 36.6657 180.314 36.5H180.014ZM178.894 36.5H178.594C178.594 36.6657 178.728 36.8 178.894 36.8V36.5ZM176.43 21.844L176.636 21.6255L176.43 21.844ZM165.134 21.876L165.34 22.0945L165.342 22.0923L165.134 21.876ZM165.006 33.3L164.788 33.5056L164.79 33.5078L165.006 33.3ZM173.659 35.2122L174.107 36.2362L174.657 35.9958L174.209 34.9718L173.659 35.2122ZM174.267 35.8391C173.148 36.3051 172.003 36.552 170.798 36.552V37.152C172.089 37.152 173.312 36.8869 174.497 36.3929L174.267 35.8391ZM170.798 36.552C168.446 36.552 166.375 35.7195 164.572 34.0103L164.16 34.4457C166.069 36.2565 168.286 37.152 170.798 37.152V36.552ZM164.572 34.0103C162.778 32.309 161.882 30.1807 161.882 27.636H161.282C161.282 30.3393 162.242 32.627 164.16 34.4457L164.572 34.0103ZM161.882 27.636C161.882 25.221 162.746 23.1508 164.454 21.3803L164.022 20.9637C162.211 22.8412 161.282 25.059 161.282 27.636H161.882ZM164.452 21.3822C166.188 19.6152 168.287 18.72 170.798 18.72V18.12C168.125 18.12 165.872 19.0808 164.024 20.9618L164.452 21.3822ZM170.798 18.72C173.183 18.72 175.253 19.5531 177.022 21.2599L177.438 20.8281C175.559 19.0149 173.341 18.12 170.798 18.12V18.72ZM177.024 21.2617C178.818 22.9634 179.714 25.0599 179.714 27.636H180.314C180.314 24.9001 179.354 22.6446 177.436 20.8263L177.024 21.2617ZM179.714 27.636V36.5H180.314V27.636H179.714ZM180.014 36.2H178.894V36.8H180.014V36.2ZM179.194 36.5V27.412H178.594V36.5H179.194ZM179.194 27.412C179.194 25.149 178.325 23.2152 176.636 21.6255L176.224 22.0625C177.799 23.5448 178.594 25.323 178.594 27.412H179.194ZM176.636 21.6255C174.952 20.0407 173.023 19.24 170.798 19.24V19.84C172.861 19.84 174.644 20.5753 176.224 22.0625L176.636 21.6255ZM170.798 19.24C168.573 19.24 166.612 20.0402 164.926 21.6597L165.342 22.0923C166.92 20.5758 168.735 19.84 170.798 19.84V19.24ZM164.928 21.6575C163.233 23.253 162.402 25.2535 162.402 27.636H163.002C163.002 25.4105 163.771 23.571 165.34 22.0945L164.928 21.6575ZM162.402 27.636C162.402 29.8602 163.202 31.8207 164.788 33.5056L165.225 33.0944C163.738 31.5153 163.002 29.6998 163.002 27.636H162.402ZM164.79 33.5078C166.416 35.2005 168.415 36.032 170.798 36.032V35.432C168.573 35.432 166.732 34.6635 165.222 33.0922L164.79 33.5078ZM170.798 36.032C171.897 36.032 172.991 35.7989 174.047 35.3699L173.821 34.8141C172.829 35.2171 171.811 35.432 170.798 35.432V36.032ZM185.704 11.668H186.004C186.004 11.5023 185.87 11.368 185.704 11.368V11.668ZM185.704 15.668V15.968C185.87 15.968 186.004 15.8337 186.004 15.668H185.704ZM184.488 15.668H184.188C184.188 15.8337 184.323 15.968 184.488 15.968V15.668ZM184.488 11.668V11.368C184.323 11.368 184.188 11.5023 184.188 11.668H184.488ZM185.704 18.708H186.004C186.004 18.5423 185.87 18.408 185.704 18.408V18.708ZM185.704 36.5V36.8C185.87 36.8 186.004 36.6657 186.004 36.5H185.704ZM184.488 36.5H184.188C184.188 36.6657 184.323 36.8 184.488 36.8V36.5ZM184.488 18.708V18.408C184.323 18.408 184.188 18.5423 184.188 18.708H184.488ZM185.404 11.668V15.668H186.004V11.668H185.404ZM185.704 15.368H184.488V15.968H185.704V15.368ZM184.788 15.668V11.668H184.188V15.668H184.788ZM184.488 11.968H185.704V11.368H184.488V11.968ZM185.404 18.708V36.5H186.004V18.708H185.404ZM185.704 36.2H184.488V36.8H185.704V36.2ZM184.788 36.5V18.708H184.188V36.5H184.788ZM184.488 19.008H185.704V18.408H184.488V19.008Z" fill="#504E4C"/>
<path d="M77.187 46.5L81.923 49.804C81.651 50.348 81.267 50.78 80.763 51.1C80.267 51.42 79.723 51.58 79.123 51.58C78.507 51.58 77.939 51.412 77.427 51.076C76.915 50.732 76.539 50.292 76.291 49.748L76.555 49.596C76.771 50.1 77.107 50.516 77.571 50.828C78.043 51.14 78.555 51.3 79.123 51.3C79.915 51.3 80.587 51.012 81.131 50.444L76.363 47.108C76.627 46.604 77.003 46.196 77.491 45.884C77.987 45.572 78.531 45.42 79.123 45.42C80.147 45.42 81.083 45.94 81.659 46.764L81.411 46.932C80.899 46.172 80.051 45.7 79.123 45.7C78.379 45.7 77.739 45.964 77.187 46.5ZM76.763 47.028L81.323 50.212C81.411 50.108 81.475 50.004 81.531 49.9L76.979 46.724C76.907 46.812 76.835 46.916 76.763 47.028ZM89.2367 49.276C89.2367 49.908 89.0127 50.444 88.5567 50.9C88.1087 51.348 87.5727 51.572 86.9407 51.572C86.3087 51.572 85.7727 51.348 85.3167 50.9C84.8687 50.444 84.6447 49.908 84.6447 49.276C84.6447 48.644 84.8687 48.108 85.3167 47.66C85.7647 47.204 86.3087 46.98 86.9407 46.98C87.5727 46.98 88.1087 47.204 88.5567 47.66C89.0127 48.116 89.2367 48.652 89.2367 49.276ZM88.9567 49.276C88.9567 48.732 88.7567 48.26 88.3567 47.86C87.9647 47.46 87.4927 47.26 86.9407 47.26C86.3887 47.26 85.9167 47.46 85.5167 47.86C85.1247 48.26 84.9247 48.732 84.9247 49.276C84.9247 49.828 85.1247 50.308 85.5167 50.7C85.9087 51.092 86.3887 51.292 86.9407 51.292C87.4927 51.292 87.9727 51.092 88.3647 50.7C88.7567 50.308 88.9567 49.828 88.9567 49.276ZM92.5834 45.292V51.5H92.2794V45.292H92.5834ZM100.106 47.052H100.386V49.284C100.386 49.916 100.162 50.46 99.7057 50.908C99.2497 51.356 98.7137 51.58 98.0897 51.58C97.4577 51.58 96.9137 51.356 96.4577 50.908C96.0097 50.46 95.7857 49.916 95.7857 49.284V47.052H96.0737V49.284C96.0737 49.836 96.2737 50.316 96.6657 50.708C97.0577 51.1 97.5377 51.3 98.0897 51.3C98.6337 51.3 99.1057 51.1 99.5057 50.708C99.9057 50.316 100.106 49.836 100.106 49.284V47.052ZM105.74 51.3V51.58C105.108 51.58 104.564 51.356 104.116 50.908C103.668 50.46 103.436 49.916 103.428 49.284V45.292H103.724V47.052H104.684V47.34H103.724V49.292C103.724 49.844 103.932 50.316 104.34 50.708C104.756 51.1 105.22 51.3 105.74 51.3ZM108.762 45.292V46.292H108.458V45.292H108.762ZM108.762 47.052V51.5H108.458V47.052H108.762ZM116.396 49.276C116.396 49.908 116.172 50.444 115.716 50.9C115.268 51.348 114.732 51.572 114.1 51.572C113.468 51.572 112.932 51.348 112.476 50.9C112.028 50.444 111.804 49.908 111.804 49.276C111.804 48.644 112.028 48.108 112.476 47.66C112.924 47.204 113.468 46.98 114.1 46.98C114.732 46.98 115.268 47.204 115.716 47.66C116.172 48.116 116.396 48.652 116.396 49.276ZM116.116 49.276C116.116 48.732 115.916 48.26 115.516 47.86C115.124 47.46 114.652 47.26 114.1 47.26C113.548 47.26 113.076 47.46 112.676 47.86C112.284 48.26 112.084 48.732 112.084 49.276C112.084 49.828 112.284 50.308 112.676 50.7C113.068 51.092 113.548 51.292 114.1 51.292C114.652 51.292 115.132 51.092 115.524 50.7C115.916 50.308 116.116 49.828 116.116 49.276ZM123.911 49.268V51.5H123.615V49.268C123.615 48.716 123.415 48.244 123.015 47.852C122.615 47.452 122.143 47.252 121.591 47.252C121.047 47.252 120.575 47.452 120.175 47.852C119.775 48.244 119.575 48.716 119.575 49.268V51.5H119.279V49.268C119.279 48.636 119.503 48.1 119.959 47.652C120.415 47.196 120.959 46.972 121.591 46.972C122.223 46.972 122.767 47.196 123.223 47.652C123.679 48.1 123.911 48.636 123.911 49.268ZM127.169 48.356L131.113 50.068C130.929 50.524 130.649 50.884 130.257 51.164C129.865 51.444 129.433 51.58 128.945 51.58C128.657 51.58 128.305 51.5 127.865 51.316C127.441 51.124 127.025 50.708 126.809 50.164L127.073 50.068C127.225 50.444 127.473 50.74 127.817 50.964C128.161 51.188 128.537 51.3 128.945 51.3C129.777 51.3 130.417 50.828 130.745 50.212L126.793 48.484C126.961 48.044 127.241 47.684 127.617 47.404C128.001 47.124 128.441 46.98 128.945 46.98C129.721 46.98 130.449 47.372 130.865 48.012L130.625 48.172C130.217 47.564 129.577 47.26 128.945 47.26C128.577 47.26 128.225 47.364 127.897 47.572C127.569 47.772 127.321 48.036 127.169 48.356ZM143.023 47.636C143.023 48.268 142.799 48.796 142.343 49.22C141.895 49.644 141.383 49.852 140.807 49.852C140.511 49.852 140.223 49.796 139.943 49.676L140.047 49.412C140.311 49.516 140.567 49.572 140.807 49.572C141.367 49.572 141.823 49.38 142.183 48.988C142.543 48.596 142.727 48.148 142.727 47.636C142.727 47.084 142.535 46.62 142.159 46.252C141.783 45.884 141.327 45.7 140.807 45.7C140.287 45.7 139.839 45.892 139.455 46.284C139.079 46.676 138.887 47.124 138.887 47.644V51.5H138.591V47.636C138.591 47.004 138.815 46.484 139.263 46.06C139.711 45.636 140.223 45.42 140.807 45.42C141.431 45.42 141.959 45.644 142.383 46.084C142.807 46.524 143.023 47.044 143.023 47.636ZM147.612 51.028L149.588 47.052H149.924L147.604 51.596L145.3 47.052H145.628L147.612 51.028ZM154.797 51.3V51.58C154.165 51.58 153.621 51.356 153.173 50.908C152.725 50.46 152.493 49.916 152.485 49.284V45.292H152.781V47.052H153.741V47.34H152.781V49.292C152.781 49.844 152.989 50.316 153.397 50.708C153.813 51.1 154.277 51.3 154.797 51.3ZM157.818 51.036V51.5H157.354V51.036H157.818ZM165.797 45.5V51.22H169.669V51.5H165.493V45.5H165.797ZM174.618 51.3V51.58C173.986 51.58 173.442 51.356 172.994 50.908C172.546 50.46 172.314 49.916 172.306 49.284V45.292H172.602V47.052H173.562V47.34H172.602V49.292C172.602 49.844 172.81 50.316 173.218 50.708C173.634 51.1 174.098 51.3 174.618 51.3ZM180.216 47.148L180.104 47.412C179.872 47.308 179.608 47.252 179.32 47.252C178.752 47.252 178.272 47.452 177.88 47.86C177.488 48.26 177.296 48.732 177.296 49.276C177.296 49.836 177.496 50.316 177.896 50.708C178.296 51.1 178.768 51.3 179.32 51.3C179.864 51.3 180.336 51.1 180.736 50.708C181.144 50.316 181.344 49.852 181.344 49.332V45.292H181.624V49.276C181.624 49.932 181.392 50.484 180.928 50.924C180.464 51.364 179.928 51.58 179.32 51.58C178.672 51.58 178.128 51.348 177.68 50.892C177.24 50.436 177.016 49.892 177.016 49.276C177.016 48.62 177.248 48.076 177.704 47.636C178.168 47.196 178.704 46.972 179.32 46.972C179.648 46.972 179.944 47.028 180.216 47.148ZM185.126 51.036V51.5H184.662V51.036H185.126Z" fill="#908C88"/>
<path d="M77.187 46.5L76.978 46.2848C76.9137 46.3471 76.8807 46.435 76.8879 46.5242C76.8952 46.6135 76.9419 46.6948 77.0153 46.746L77.187 46.5ZM81.923 49.804L82.1913 49.9382C82.2579 49.805 82.2167 49.6431 82.0946 49.558L81.923 49.804ZM80.763 51.1L80.6022 50.8467L80.6003 50.8479L80.763 51.1ZM77.427 51.076L77.2597 51.325L77.2624 51.3268L77.427 51.076ZM76.291 49.748L76.1413 49.488C76.0072 49.5652 75.9538 49.7317 76.018 49.8724L76.291 49.748ZM76.555 49.596L76.8307 49.4778C76.797 49.3991 76.7311 49.3385 76.6498 49.3114C76.5685 49.2843 76.4795 49.2933 76.4053 49.336L76.555 49.596ZM77.571 50.828L77.4036 51.077L77.4055 51.0783L77.571 50.828ZM81.131 50.444L81.3476 50.6515C81.4082 50.5883 81.4381 50.5017 81.4295 50.4146C81.4209 50.3274 81.3747 50.2484 81.303 50.1982L81.131 50.444ZM76.363 47.108L76.0972 46.9688C76.0272 47.1025 76.0674 47.2673 76.191 47.3538L76.363 47.108ZM77.491 45.884L77.3312 45.6301L77.3294 45.6312L77.491 45.884ZM81.659 46.764L81.8272 47.0124C81.8937 46.9673 81.9394 46.8975 81.954 46.8185C81.9686 46.7395 81.9509 46.658 81.9049 46.5921L81.659 46.764ZM81.411 46.932L81.1622 47.0996C81.2067 47.1657 81.2757 47.2114 81.3539 47.2265C81.4322 47.2417 81.5132 47.2251 81.5792 47.1804L81.411 46.932ZM76.763 47.028L76.5106 46.8658C76.4234 47.0014 76.459 47.1817 76.5912 47.274L76.763 47.028ZM81.323 50.212L81.1512 50.458C81.2782 50.5467 81.4519 50.5241 81.552 50.4058L81.323 50.212ZM81.531 49.9L81.7951 50.0422C81.8673 49.9081 81.8276 49.7411 81.7026 49.654L81.531 49.9ZM76.979 46.724L77.1506 46.478C77.022 46.3883 76.8461 46.4127 76.7468 46.534L76.979 46.724ZM77.0153 46.746L81.7513 50.05L82.0946 49.558L77.3586 46.254L77.0153 46.746ZM81.6546 49.6698C81.406 50.167 81.0584 50.5571 80.6022 50.8467L80.9238 51.3533C81.4756 51.0029 81.8959 50.529 82.1913 49.9382L81.6546 49.6698ZM80.6003 50.8479C80.1533 51.1363 79.6659 51.28 79.123 51.28V51.88C79.7801 51.88 80.3806 51.7037 80.9256 51.3521L80.6003 50.8479ZM79.123 51.28C78.5647 51.28 78.054 51.1287 77.5916 50.8252L77.2624 51.3268C77.8239 51.6953 78.4493 51.88 79.123 51.88V51.28ZM77.5943 50.827C77.1269 50.513 76.7882 50.1155 76.5639 49.6236L76.018 49.8724C76.2897 50.4685 76.703 50.951 77.2597 51.325L77.5943 50.827ZM76.4407 50.008L76.7047 49.856L76.4053 49.336L76.1413 49.488L76.4407 50.008ZM76.2792 49.7142C76.5172 50.2694 76.89 50.7316 77.4036 51.077L77.7384 50.579C77.324 50.3004 77.0247 49.9306 76.8307 49.4778L76.2792 49.7142ZM77.4055 51.0783C77.9248 51.4215 78.494 51.6 79.123 51.6V51C78.6159 51 78.1611 50.8585 77.7364 50.5777L77.4055 51.0783ZM79.123 51.6C79.9968 51.6 80.747 51.2786 81.3476 50.6515L80.9143 50.2365C80.4269 50.7454 79.8332 51 79.123 51V51.6ZM81.303 50.1982L76.535 46.8622L76.191 47.3538L80.959 50.6898L81.303 50.1982ZM76.6287 47.2472C76.868 46.7903 77.2077 46.4211 77.6526 46.1368L77.3294 45.6312C76.7982 45.9708 76.3859 46.4177 76.0972 46.9688L76.6287 47.2472ZM77.6507 46.1379C78.0972 45.8571 78.5854 45.72 79.123 45.72V45.12C78.4765 45.12 77.8768 45.2869 77.3312 45.6301L77.6507 46.1379ZM79.123 45.72C80.0435 45.72 80.89 46.1876 81.4131 46.9359L81.9049 46.5921C81.276 45.6924 80.2504 45.12 79.123 45.12V45.72ZM81.4907 46.5156L81.2427 46.6836L81.5792 47.1804L81.8272 47.0124L81.4907 46.5156ZM81.6598 46.7644C81.0943 45.9249 80.1547 45.4 79.123 45.4V46C79.9472 46 80.7037 46.4191 81.1622 47.0996L81.6598 46.7644ZM79.123 45.4C78.2982 45.4 77.584 45.6963 76.978 46.2848L77.396 46.7152C77.894 46.2317 78.4597 46 79.123 46V45.4ZM76.5912 47.274L81.1512 50.458L81.4947 49.966L76.9347 46.782L76.5912 47.274ZM81.552 50.4058C81.6579 50.2806 81.7332 50.1572 81.7951 50.0422L81.2668 49.7578C81.2168 49.8508 81.164 49.9354 81.094 50.0182L81.552 50.4058ZM81.7026 49.654L77.1506 46.478L76.8073 46.97L81.3593 50.146L81.7026 49.654ZM76.7468 46.534C76.6644 46.6347 76.5854 46.7494 76.5106 46.8658L77.0153 47.1902C77.0845 47.0826 77.1495 46.9893 77.2112 46.914L76.7468 46.534ZM88.5567 50.9L88.7689 51.1121L88.5567 50.9ZM85.3167 50.9L85.1027 51.1103L85.1065 51.114L85.3167 50.9ZM85.3167 47.66L85.5289 47.8721L85.5307 47.8702L85.3167 47.66ZM88.5567 47.66L88.3427 47.8703L88.3446 47.8721L88.5567 47.66ZM88.3567 47.86L88.1424 48.07L88.1446 48.0721L88.3567 47.86ZM85.5167 47.86L85.3046 47.6479L85.3025 47.65L85.5167 47.86ZM85.5167 50.7L85.7289 50.4879L85.5167 50.7ZM88.3647 50.7L88.5769 50.9121V50.9121L88.3647 50.7ZM88.9367 49.276C88.9367 49.8269 88.7455 50.287 88.3446 50.6879L88.7689 51.1121C89.28 50.601 89.5367 49.9891 89.5367 49.276H88.9367ZM88.3446 50.6879C87.9523 51.0802 87.4924 51.272 86.9407 51.272V51.872C87.6531 51.872 88.2652 51.6158 88.7689 51.1121L88.3446 50.6879ZM86.9407 51.272C86.3895 51.272 85.9284 51.0804 85.527 50.686L85.1065 51.114C85.617 51.6156 86.228 51.872 86.9407 51.872V51.272ZM85.5307 50.6898C85.1363 50.2883 84.9447 49.8272 84.9447 49.276H84.3447C84.3447 49.9888 84.6011 50.5997 85.1027 51.1102L85.5307 50.6898ZM84.9447 49.276C84.9447 48.7244 85.1366 48.2644 85.5289 47.8721L85.1046 47.4479C84.6009 47.9516 84.3447 48.5636 84.3447 49.276H84.9447ZM85.5307 47.8702C85.9217 47.4723 86.3883 47.28 86.9407 47.28V46.68C86.2291 46.68 85.6078 46.9357 85.1027 47.4498L85.5307 47.8702ZM86.9407 47.28C87.492 47.28 87.951 47.4715 88.3427 47.8702L88.7707 47.4498C88.2665 46.9365 87.6535 46.68 86.9407 46.68V47.28ZM88.3446 47.8721C88.7459 48.2734 88.9367 48.7337 88.9367 49.276H89.5367C89.5367 48.5703 89.2796 47.9586 88.7689 47.4479L88.3446 47.8721ZM89.2567 49.276C89.2567 48.649 89.0226 48.1016 88.5689 47.6479L88.1446 48.0721C88.4908 48.4184 88.6567 48.815 88.6567 49.276H89.2567ZM88.571 47.65C88.1235 47.1934 87.5747 46.96 86.9407 46.96V47.56C87.4108 47.56 87.806 47.7266 88.1425 48.07L88.571 47.65ZM86.9407 46.96C86.3063 46.96 85.7588 47.1936 85.3046 47.6479L85.7289 48.0721C86.0746 47.7264 86.4711 47.56 86.9407 47.56V46.96ZM85.3025 47.65C84.8584 48.1031 84.6247 48.6494 84.6247 49.276H85.2247C85.2247 48.8146 85.391 48.4169 85.731 48.07L85.3025 47.65ZM84.6247 49.276C84.6247 49.9082 84.8568 50.4643 85.3046 50.9121L85.7289 50.4879C85.3927 50.1517 85.2247 49.7478 85.2247 49.276H84.6247ZM85.3046 50.9121C85.7524 51.3599 86.3085 51.592 86.9407 51.592V50.992C86.4689 50.992 86.0651 50.8241 85.7289 50.4879L85.3046 50.9121ZM86.9407 51.592C87.5729 51.592 88.1291 51.3599 88.5769 50.9121L88.1526 50.4879C87.8164 50.8241 87.4125 50.992 86.9407 50.992V51.592ZM88.5769 50.9121C89.0247 50.4643 89.2567 49.9082 89.2567 49.276H88.6567C88.6567 49.7478 88.4888 50.1517 88.1526 50.4879L88.5769 50.9121ZM92.5834 45.292H92.8834C92.8834 45.1263 92.7491 44.992 92.5834 44.992V45.292ZM92.5834 51.5V51.8C92.7491 51.8 92.8834 51.6657 92.8834 51.5H92.5834ZM92.2794 51.5H91.9794C91.9794 51.6657 92.1137 51.8 92.2794 51.8V51.5ZM92.2794 45.292V44.992C92.1137 44.992 91.9794 45.1263 91.9794 45.292H92.2794ZM92.2834 45.292V51.5H92.8834V45.292H92.2834ZM92.5834 51.2H92.2794V51.8H92.5834V51.2ZM92.5794 51.5V45.292H91.9794V51.5H92.5794ZM92.2794 45.592H92.5834V44.992H92.2794V45.592ZM100.106 47.052V46.752C99.94 46.752 99.8057 46.8863 99.8057 47.052H100.106ZM100.386 47.052H100.686C100.686 46.8863 100.551 46.752 100.386 46.752V47.052ZM99.7057 50.908L99.9159 51.122V51.122L99.7057 50.908ZM96.4577 50.908L96.2455 51.1201L96.2474 51.122L96.4577 50.908ZM95.7857 47.052V46.752C95.62 46.752 95.4857 46.8863 95.4857 47.052H95.7857ZM96.0737 47.052H96.3737C96.3737 46.8863 96.2393 46.752 96.0737 46.752V47.052ZM96.6657 50.708L96.8778 50.4959L96.6657 50.708ZM99.5057 50.708L99.2957 50.4937H99.2957L99.5057 50.708ZM100.106 47.352H100.386V46.752H100.106V47.352ZM100.086 47.052V49.284H100.686V47.052H100.086ZM100.086 49.284C100.086 49.8364 99.8934 50.303 99.4954 50.694L99.9159 51.122C100.43 50.617 100.686 49.9956 100.686 49.284H100.086ZM99.4954 50.694C99.0936 51.0888 98.6323 51.28 98.0897 51.28V51.88C98.795 51.88 99.4057 51.6232 99.9159 51.122L99.4954 50.694ZM98.0897 51.28C97.5373 51.28 97.0685 51.0876 96.6679 50.694L96.2474 51.122C96.7588 51.6244 97.378 51.88 98.0897 51.88V51.28ZM96.6698 50.6959C96.2783 50.3044 96.0857 49.8368 96.0857 49.284H95.4857C95.4857 49.9952 95.741 50.6156 96.2455 51.1201L96.6698 50.6959ZM96.0857 49.284V47.052H95.4857V49.284H96.0857ZM95.7857 47.352H96.0737V46.752H95.7857V47.352ZM95.7737 47.052V49.284H96.3737V47.052H95.7737ZM95.7737 49.284C95.7737 49.9162 96.0057 50.4723 96.4535 50.9201L96.8778 50.4959C96.5416 50.1597 96.3737 49.7558 96.3737 49.284H95.7737ZM96.4535 50.9201C96.9013 51.3679 97.4574 51.6 98.0897 51.6V51C97.6179 51 97.214 50.8321 96.8778 50.4959L96.4535 50.9201ZM98.0897 51.6C98.7163 51.6 99.2625 51.3663 99.7156 50.9223L99.2957 50.4937C98.9488 50.8337 98.5511 51 98.0897 51V51.6ZM99.7156 50.9223C100.173 50.4738 100.406 49.9166 100.406 49.284H99.8057C99.8057 49.7554 99.6381 50.1582 99.2957 50.4937L99.7156 50.9223ZM100.406 49.284V47.052H99.8057V49.284H100.406ZM105.74 51.3H106.04C106.04 51.1343 105.906 51 105.74 51V51.3ZM105.74 51.58V51.88C105.906 51.88 106.04 51.7457 106.04 51.58H105.74ZM104.116 50.908L103.904 51.1201L104.116 50.908ZM103.428 49.284H103.128L103.128 49.2878L103.428 49.284ZM103.428 45.292V44.992C103.263 44.992 103.128 45.1263 103.128 45.292H103.428ZM103.724 45.292H104.024C104.024 45.1263 103.89 44.992 103.724 44.992V45.292ZM103.724 47.052H103.424C103.424 47.2177 103.559 47.352 103.724 47.352V47.052ZM104.684 47.052H104.984C104.984 46.8863 104.85 46.752 104.684 46.752V47.052ZM104.684 47.34V47.64C104.85 47.64 104.984 47.5057 104.984 47.34H104.684ZM103.724 47.34V47.04C103.559 47.04 103.424 47.1743 103.424 47.34H103.724ZM104.34 50.708L104.133 50.9243L104.135 50.9263L104.34 50.708ZM105.44 51.3V51.58H106.04V51.3H105.44ZM105.74 51.28C105.188 51.28 104.72 51.0874 104.329 50.6959L103.904 51.1201C104.409 51.6246 105.029 51.88 105.74 51.88V51.28ZM104.329 50.6959C103.935 50.3025 103.735 49.833 103.728 49.2802L103.128 49.2878C103.137 49.999 103.402 50.6175 103.904 51.1201L104.329 50.6959ZM103.728 49.284V45.292H103.128V49.284H103.728ZM103.428 45.592H103.724V44.992H103.428V45.592ZM103.424 45.292V47.052H104.024V45.292H103.424ZM103.724 47.352H104.684V46.752H103.724V47.352ZM104.384 47.052V47.34H104.984V47.052H104.384ZM104.684 47.04H103.724V47.64H104.684V47.04ZM103.424 47.34V49.292H104.024V47.34H103.424ZM103.424 49.292C103.424 49.9294 103.669 50.4785 104.133 50.9243L104.548 50.4917C104.196 50.1535 104.024 49.7586 104.024 49.292H103.424ZM104.135 50.9263C104.599 51.3635 105.134 51.6 105.74 51.6V51C105.307 51 104.914 50.8365 104.546 50.4897L104.135 50.9263ZM108.762 45.292H109.062C109.062 45.1263 108.928 44.992 108.762 44.992V45.292ZM108.762 46.292V46.592C108.928 46.592 109.062 46.4577 109.062 46.292H108.762ZM108.458 46.292H108.158C108.158 46.4577 108.292 46.592 108.458 46.592V46.292ZM108.458 45.292V44.992C108.292 44.992 108.158 45.1263 108.158 45.292H108.458ZM108.762 47.052H109.062C109.062 46.8863 108.928 46.752 108.762 46.752V47.052ZM108.762 51.5V51.8C108.928 51.8 109.062 51.6657 109.062 51.5H108.762ZM108.458 51.5H108.158C108.158 51.6657 108.292 51.8 108.458 51.8V51.5ZM108.458 47.052V46.752C108.292 46.752 108.158 46.8863 108.158 47.052H108.458ZM108.462 45.292V46.292H109.062V45.292H108.462ZM108.762 45.992H108.458V46.592H108.762V45.992ZM108.758 46.292V45.292H108.158V46.292H108.758ZM108.458 45.592H108.762V44.992H108.458V45.592ZM108.462 47.052V51.5H109.062V47.052H108.462ZM108.762 51.2H108.458V51.8H108.762V51.2ZM108.758 51.5V47.052H108.158V51.5H108.758ZM108.458 47.352H108.762V46.752H108.458V47.352ZM115.716 50.9L115.928 51.1121L115.716 50.9ZM112.476 50.9L112.262 51.1103L112.266 51.114L112.476 50.9ZM112.476 47.66L112.688 47.8721L112.69 47.8702L112.476 47.66ZM115.716 47.66L115.502 47.8703L115.504 47.8721L115.716 47.66ZM115.516 47.86L115.302 48.07L115.304 48.0721L115.516 47.86ZM112.676 47.86L112.464 47.6479L112.462 47.65L112.676 47.86ZM112.676 50.7L112.888 50.4879L112.676 50.7ZM115.524 50.7L115.736 50.9121V50.9121L115.524 50.7ZM116.096 49.276C116.096 49.8269 115.905 50.287 115.504 50.6879L115.928 51.1121C116.439 50.601 116.696 49.9891 116.696 49.276H116.096ZM115.504 50.6879C115.112 51.0802 114.652 51.272 114.1 51.272V51.872C114.812 51.872 115.425 51.6158 115.928 51.1121L115.504 50.6879ZM114.1 51.272C113.549 51.272 113.088 51.0804 112.686 50.686L112.266 51.114C112.776 51.6156 113.387 51.872 114.1 51.872V51.272ZM112.69 50.6898C112.296 50.2883 112.104 49.8272 112.104 49.276H111.504C111.504 49.9888 111.76 50.5997 112.262 51.1102L112.69 50.6898ZM112.104 49.276C112.104 48.7244 112.296 48.2644 112.688 47.8721L112.264 47.4479C111.76 47.9516 111.504 48.5636 111.504 49.276H112.104ZM112.69 47.8702C113.081 47.4723 113.548 47.28 114.1 47.28V46.68C113.389 46.68 112.767 46.9357 112.262 47.4498L112.69 47.8702ZM114.1 47.28C114.651 47.28 115.11 47.4715 115.502 47.8702L115.93 47.4498C115.426 46.9365 114.813 46.68 114.1 46.68V47.28ZM115.504 47.8721C115.905 48.2734 116.096 48.7337 116.096 49.276H116.696C116.696 48.5703 116.439 47.9586 115.928 47.4479L115.504 47.8721ZM116.416 49.276C116.416 48.649 116.182 48.1016 115.728 47.6479L115.304 48.0721C115.65 48.4184 115.816 48.815 115.816 49.276H116.416ZM115.73 47.65C115.283 47.1934 114.734 46.96 114.1 46.96V47.56C114.57 47.56 114.965 47.7266 115.302 48.07L115.73 47.65ZM114.1 46.96C113.466 46.96 112.918 47.1936 112.464 47.6479L112.888 48.0721C113.234 47.7264 113.63 47.56 114.1 47.56V46.96ZM112.462 47.65C112.018 48.1031 111.784 48.6494 111.784 49.276H112.384C112.384 48.8146 112.55 48.4169 112.89 48.07L112.462 47.65ZM111.784 49.276C111.784 49.9082 112.016 50.4643 112.464 50.9121L112.888 50.4879C112.552 50.1517 112.384 49.7478 112.384 49.276H111.784ZM112.464 50.9121C112.912 51.3599 113.468 51.592 114.1 51.592V50.992C113.628 50.992 113.224 50.8241 112.888 50.4879L112.464 50.9121ZM114.1 51.592C114.732 51.592 115.288 51.3599 115.736 50.9121L115.312 50.4879C114.976 50.8241 114.572 50.992 114.1 50.992V51.592ZM115.736 50.9121C116.184 50.4643 116.416 49.9082 116.416 49.276H115.816C115.816 49.7478 115.648 50.1517 115.312 50.4879L115.736 50.9121ZM123.911 51.5V51.8C124.076 51.8 124.211 51.6657 124.211 51.5H123.911ZM123.615 51.5H123.315C123.315 51.6657 123.449 51.8 123.615 51.8V51.5ZM123.015 47.852L122.803 48.0641L122.805 48.0663L123.015 47.852ZM120.175 47.852L120.385 48.0663L120.387 48.0641L120.175 47.852ZM119.575 51.5V51.8C119.74 51.8 119.875 51.6657 119.875 51.5H119.575ZM119.279 51.5H118.979C118.979 51.6657 119.113 51.8 119.279 51.8V51.5ZM119.959 47.652L120.169 47.866L120.171 47.8641L119.959 47.652ZM123.223 47.652L123.011 47.8641L123.013 47.866L123.223 47.652ZM123.611 49.268V51.5H124.211V49.268H123.611ZM123.911 51.2H123.615V51.8H123.911V51.2ZM123.915 51.5V49.268H123.315V51.5H123.915ZM123.915 49.268C123.915 48.6341 123.681 48.0852 123.225 47.6377L122.805 48.0663C123.148 48.4028 123.315 48.7979 123.315 49.268H123.915ZM123.227 47.6399C122.773 47.1856 122.225 46.952 121.591 46.952V47.552C122.06 47.552 122.457 47.7184 122.803 48.0641L123.227 47.6399ZM121.591 46.952C120.964 46.952 120.416 47.1861 119.963 47.6399L120.387 48.0641C120.733 47.7179 121.13 47.552 121.591 47.552V46.952ZM119.965 47.6377C119.508 48.0852 119.275 48.6341 119.275 49.268H119.875C119.875 48.7979 120.041 48.4028 120.385 48.0663L119.965 47.6377ZM119.275 49.268V51.5H119.875V49.268H119.275ZM119.575 51.2H119.279V51.8H119.575V51.2ZM119.579 51.5V49.268H118.979V51.5H119.579ZM119.579 49.268C119.579 48.7167 119.77 48.2578 120.169 47.866L119.749 47.438C119.235 47.9422 118.979 48.5553 118.979 49.268H119.579ZM120.171 47.8641C120.571 47.4641 121.039 47.272 121.591 47.272V46.672C120.879 46.672 120.259 46.9279 119.747 47.4399L120.171 47.8641ZM121.591 47.272C122.143 47.272 122.611 47.4641 123.011 47.8641L123.435 47.4399C122.923 46.9279 122.303 46.672 121.591 46.672V47.272ZM123.013 47.866C123.413 48.2597 123.611 48.7194 123.611 49.268H124.211C124.211 48.5526 123.944 47.9403 123.433 47.438L123.013 47.866ZM127.169 48.356L126.898 48.2273C126.863 48.3007 126.859 48.3852 126.888 48.4614C126.917 48.5375 126.975 48.5988 127.049 48.6312L127.169 48.356ZM131.113 50.068L131.391 50.1803C131.452 50.0294 131.382 49.8576 131.232 49.7928L131.113 50.068ZM130.257 51.164L130.082 50.9199L130.257 51.164ZM127.865 51.316L127.741 51.5894L127.749 51.5928L127.865 51.316ZM126.809 50.164L126.706 49.8821C126.63 49.9098 126.568 49.9671 126.535 50.0411C126.502 50.1151 126.5 50.1993 126.53 50.2747L126.809 50.164ZM127.073 50.068L127.351 49.9556C127.29 49.8058 127.122 49.7309 126.97 49.7861L127.073 50.068ZM127.817 50.964L127.653 51.2154L127.817 50.964ZM130.745 50.212L131.01 50.353C131.049 50.2792 131.056 50.1924 131.028 50.1135C131.001 50.0345 130.942 49.9706 130.865 49.9371L130.745 50.212ZM126.793 48.484L126.513 48.377C126.455 48.5266 126.526 48.6947 126.673 48.7589L126.793 48.484ZM127.617 47.404L127.44 47.1616L127.438 47.1634L127.617 47.404ZM130.865 48.012L131.031 48.2616C131.168 48.1705 131.206 47.9863 131.116 47.8485L130.865 48.012ZM130.625 48.172L130.376 48.3392C130.468 48.4765 130.654 48.5133 130.791 48.4216L130.625 48.172ZM127.897 47.572L128.053 47.8282L128.058 47.8254L127.897 47.572ZM127.049 48.6312L130.993 50.3432L131.232 49.7928L127.288 48.0808L127.049 48.6312ZM130.835 49.9557C130.671 50.3605 130.427 50.6741 130.082 50.9199L130.431 51.4081C130.871 51.0939 131.186 50.6875 131.391 50.1803L130.835 49.9557ZM130.082 50.9199C129.743 51.1627 129.372 51.28 128.945 51.28V51.88C129.494 51.88 129.987 51.7253 130.431 51.4081L130.082 50.9199ZM128.945 51.28C128.711 51.28 128.399 51.2144 127.981 51.0392L127.749 51.5928C128.21 51.7856 128.603 51.88 128.945 51.88V51.28ZM127.989 51.0427C127.638 50.8842 127.276 50.5283 127.088 50.0533L126.53 50.2747C126.773 50.8877 127.243 51.3638 127.741 51.5893L127.989 51.0427ZM126.911 50.4459L127.175 50.3499L126.97 49.7861L126.706 49.8821L126.911 50.4459ZM126.795 50.1804C126.971 50.6154 127.26 50.9591 127.653 51.2154L127.981 50.7126C127.686 50.5209 127.479 50.2726 127.351 49.9556L126.795 50.1804ZM127.653 51.2154C128.046 51.4709 128.478 51.6 128.945 51.6V51C128.595 51 128.276 50.9051 127.981 50.7126L127.653 51.2154ZM128.945 51.6C129.901 51.6 130.636 51.055 131.01 50.353L130.48 50.071C130.198 50.601 129.653 51 128.945 51V51.6ZM130.865 49.9371L126.913 48.2091L126.673 48.7589L130.625 50.4869L130.865 49.9371ZM127.073 48.591C127.22 48.2067 127.464 47.8922 127.796 47.6446L127.438 47.1634C127.018 47.4758 126.702 47.8813 126.513 48.377L127.073 48.591ZM127.794 47.6464C128.125 47.4049 128.503 47.28 128.945 47.28V46.68C128.379 46.68 127.877 46.8431 127.44 47.1616L127.794 47.6464ZM128.945 47.28C129.621 47.28 130.254 47.6221 130.613 48.1755L131.116 47.8485C130.644 47.1219 129.821 46.68 128.945 46.68V47.28ZM130.698 47.7624L130.458 47.9224L130.791 48.4216L131.031 48.2616L130.698 47.7624ZM130.874 48.0048C130.408 47.3112 129.674 46.96 128.945 46.96V47.56C129.48 47.56 130.025 47.8168 130.376 48.3392L130.874 48.0048ZM128.945 46.96C128.517 46.96 128.11 47.0816 127.736 47.3186L128.058 47.8254C128.34 47.6464 128.636 47.56 128.945 47.56V46.96ZM127.741 47.3159C127.369 47.5426 127.078 47.8485 126.898 48.2273L127.44 48.4847C127.564 48.2235 127.769 48.0014 128.053 47.8281L127.741 47.3159ZM142.343 49.22L142.139 49.0003L142.137 49.0021L142.343 49.22ZM139.943 49.676L139.664 49.566C139.604 49.717 139.676 49.8878 139.825 49.9517L139.943 49.676ZM140.047 49.412L140.157 49.1329C140.003 49.0721 139.829 49.1479 139.768 49.302L140.047 49.412ZM139.455 46.284L139.241 46.0741L139.238 46.0763L139.455 46.284ZM138.887 51.5V51.8C139.053 51.8 139.187 51.6657 139.187 51.5H138.887ZM138.591 51.5H138.291C138.291 51.6657 138.425 51.8 138.591 51.8V51.5ZM139.263 46.06L139.469 46.2779V46.2779L139.263 46.06ZM142.383 46.084L142.167 46.2922V46.2922L142.383 46.084ZM142.723 47.636C142.723 48.1875 142.532 48.635 142.139 49.0003L142.547 49.4397C143.066 48.957 143.323 48.3485 143.323 47.636H142.723ZM142.137 49.0021C141.741 49.3765 141.302 49.552 140.807 49.552V50.152C141.464 50.152 142.049 49.9115 142.549 49.4379L142.137 49.0021ZM140.807 49.552C140.55 49.552 140.302 49.5037 140.061 49.4003L139.825 49.9517C140.144 50.0883 140.472 50.152 140.807 50.152V49.552ZM140.222 49.786L140.326 49.522L139.768 49.302L139.664 49.566L140.222 49.786ZM139.937 49.6911C140.227 49.8055 140.521 49.872 140.807 49.872V49.272C140.613 49.272 140.395 49.2265 140.157 49.1329L139.937 49.6911ZM140.807 49.872C141.445 49.872 141.983 49.649 142.404 49.1909L141.962 48.7851C141.663 49.111 141.289 49.272 140.807 49.272V49.872ZM142.404 49.1909C142.811 48.7477 143.027 48.2286 143.027 47.636H142.427C142.427 48.0674 142.275 48.4443 141.962 48.7851L142.404 49.1909ZM143.027 47.636C143.027 47.0068 142.805 46.4644 142.369 46.0376L141.949 46.4664C142.265 46.7756 142.427 47.1612 142.427 47.636H143.027ZM142.369 46.0376C141.937 45.6145 141.405 45.4 140.807 45.4V46C141.249 46 141.629 46.1535 141.949 46.4664L142.369 46.0376ZM140.807 45.4C140.202 45.4 139.678 45.6273 139.241 46.0741L139.669 46.4939C140 46.1567 140.372 46 140.807 46V45.4ZM139.238 46.0763C138.814 46.5192 138.587 47.04 138.587 47.644H139.187C139.187 47.208 139.344 46.8328 139.671 46.4917L139.238 46.0763ZM138.587 47.644V51.5H139.187V47.644H138.587ZM138.887 51.2H138.591V51.8H138.887V51.2ZM138.891 51.5V47.636H138.291V51.5H138.891ZM138.891 47.636C138.891 47.0853 139.082 46.6445 139.469 46.2779L139.057 45.8421C138.548 46.3235 138.291 46.9227 138.291 47.636H138.891ZM139.469 46.2779C139.866 45.9019 140.306 45.72 140.807 45.72V45.12C140.14 45.12 139.556 45.3701 139.057 45.8421L139.469 46.2779ZM140.807 45.72C141.351 45.72 141.8 45.9117 142.167 46.2922L142.599 45.8758C142.118 45.3763 141.511 45.12 140.807 45.12V45.72ZM142.167 46.2922C142.54 46.6789 142.723 47.1252 142.723 47.636H143.323C143.323 46.9628 143.074 46.3691 142.599 45.8758L142.167 46.2922ZM147.612 51.028L147.343 51.1619C147.394 51.2638 147.498 51.3281 147.612 51.328C147.726 51.3279 147.83 51.2634 147.88 51.1615L147.612 51.028ZM149.588 47.052V46.752C149.474 46.752 149.37 46.8165 149.319 46.9185L149.588 47.052ZM149.924 47.052L150.191 47.1884C150.238 47.0954 150.234 46.9844 150.18 46.8954C150.125 46.8063 150.028 46.752 149.924 46.752V47.052ZM147.604 51.596L147.336 51.7317C147.387 51.8323 147.49 51.8958 147.603 51.896C147.716 51.8962 147.82 51.8329 147.871 51.7324L147.604 51.596ZM145.3 47.052V46.752C145.195 46.752 145.099 46.8061 145.044 46.895C144.99 46.9839 144.985 47.0947 145.032 47.1877L145.3 47.052ZM145.628 47.052L145.896 46.9181C145.845 46.8163 145.741 46.752 145.628 46.752V47.052ZM147.88 51.1615L149.856 47.1855L149.319 46.9185L147.343 50.8945L147.88 51.1615ZM149.588 47.352H149.924V46.752H149.588V47.352ZM149.657 46.9156L147.337 51.4596L147.871 51.7324L150.191 47.1884L149.657 46.9156ZM147.871 51.4603L145.567 46.9163L145.032 47.1877L147.336 51.7317L147.871 51.4603ZM145.3 47.352H145.628V46.752H145.3V47.352ZM145.359 47.1859L147.343 51.1619L147.88 50.8941L145.896 46.9181L145.359 47.1859ZM154.797 51.3H155.097C155.097 51.1343 154.963 51 154.797 51V51.3ZM154.797 51.58V51.88C154.963 51.88 155.097 51.7457 155.097 51.58H154.797ZM153.173 50.908L152.961 51.1201L153.173 50.908ZM152.485 49.284H152.185L152.185 49.2878L152.485 49.284ZM152.485 45.292V44.992C152.319 44.992 152.185 45.1263 152.185 45.292H152.485ZM152.781 45.292H153.081C153.081 45.1263 152.947 44.992 152.781 44.992V45.292ZM152.781 47.052H152.481C152.481 47.2177 152.615 47.352 152.781 47.352V47.052ZM153.741 47.052H154.041C154.041 46.8863 153.907 46.752 153.741 46.752V47.052ZM153.741 47.34V47.64C153.907 47.64 154.041 47.5057 154.041 47.34H153.741ZM152.781 47.34V47.04C152.615 47.04 152.481 47.1743 152.481 47.34H152.781ZM153.397 50.708L153.189 50.9243L153.191 50.9263L153.397 50.708ZM154.497 51.3V51.58H155.097V51.3H154.497ZM154.797 51.28C154.244 51.28 153.777 51.0874 153.385 50.6959L152.961 51.1201C153.465 51.6246 154.086 51.88 154.797 51.88V51.28ZM153.385 50.6959C152.992 50.3025 152.792 49.833 152.785 49.2802L152.185 49.2878C152.194 49.999 152.458 50.6175 152.961 51.1201L153.385 50.6959ZM152.785 49.284V45.292H152.185V49.284H152.785ZM152.485 45.592H152.781V44.992H152.485V45.592ZM152.481 45.292V47.052H153.081V45.292H152.481ZM152.781 47.352H153.741V46.752H152.781V47.352ZM153.441 47.052V47.34H154.041V47.052H153.441ZM153.741 47.04H152.781V47.64H153.741V47.04ZM152.481 47.34V49.292H153.081V47.34H152.481ZM152.481 49.292C152.481 49.9294 152.725 50.4785 153.189 50.9243L153.605 50.4917C153.253 50.1535 153.081 49.7586 153.081 49.292H152.481ZM153.191 50.9263C153.655 51.3635 154.191 51.6 154.797 51.6V51C154.364 51 153.971 50.8365 153.603 50.4897L153.191 50.9263ZM157.818 51.036H158.118C158.118 50.8703 157.984 50.736 157.818 50.736V51.036ZM157.818 51.5V51.8C157.984 51.8 158.118 51.6657 158.118 51.5H157.818ZM157.354 51.5H157.054C157.054 51.6657 157.189 51.8 157.354 51.8V51.5ZM157.354 51.036V50.736C157.189 50.736 157.054 50.8703 157.054 51.036H157.354ZM157.518 51.036V51.5H158.118V51.036H157.518ZM157.818 51.2H157.354V51.8H157.818V51.2ZM157.654 51.5V51.036H157.054V51.5H157.654ZM157.354 51.336H157.818V50.736H157.354V51.336ZM165.797 45.5H166.097C166.097 45.3343 165.963 45.2 165.797 45.2V45.5ZM165.797 51.22H165.497C165.497 51.3857 165.632 51.52 165.797 51.52V51.22ZM169.669 51.22H169.969C169.969 51.0543 169.835 50.92 169.669 50.92V51.22ZM169.669 51.5V51.8C169.835 51.8 169.969 51.6657 169.969 51.5H169.669ZM165.493 51.5H165.193C165.193 51.6657 165.328 51.8 165.493 51.8V51.5ZM165.493 45.5V45.2C165.328 45.2 165.193 45.3343 165.193 45.5H165.493ZM165.497 45.5V51.22H166.097V45.5H165.497ZM165.797 51.52H169.669V50.92H165.797V51.52ZM169.369 51.22V51.5H169.969V51.22H169.369ZM169.669 51.2H165.493V51.8H169.669V51.2ZM165.793 51.5V45.5H165.193V51.5H165.793ZM165.493 45.8H165.797V45.2H165.493V45.8ZM174.618 51.3H174.918C174.918 51.1343 174.784 51 174.618 51V51.3ZM174.618 51.58V51.88C174.784 51.88 174.918 51.7457 174.918 51.58H174.618ZM172.994 50.908L172.782 51.1201L172.994 50.908ZM172.306 49.284H172.006L172.006 49.2878L172.306 49.284ZM172.306 45.292V44.992C172.141 44.992 172.006 45.1263 172.006 45.292H172.306ZM172.602 45.292H172.902C172.902 45.1263 172.768 44.992 172.602 44.992V45.292ZM172.602 47.052H172.302C172.302 47.2177 172.437 47.352 172.602 47.352V47.052ZM173.562 47.052H173.862C173.862 46.8863 173.728 46.752 173.562 46.752V47.052ZM173.562 47.34V47.64C173.728 47.64 173.862 47.5057 173.862 47.34H173.562ZM172.602 47.34V47.04C172.437 47.04 172.302 47.1743 172.302 47.34H172.602ZM173.218 50.708L173.01 50.9243L173.013 50.9263L173.218 50.708ZM174.318 51.3V51.58H174.918V51.3H174.318ZM174.618 51.28C174.066 51.28 173.598 51.0874 173.206 50.6959L172.782 51.1201C173.287 51.6246 173.907 51.88 174.618 51.88V51.28ZM173.206 50.6959C172.813 50.3025 172.613 49.833 172.606 49.2802L172.006 49.2878C172.015 49.999 172.28 50.6175 172.782 51.1201L173.206 50.6959ZM172.606 49.284V45.292H172.006V49.284H172.606ZM172.306 45.592H172.602V44.992H172.306V45.592ZM172.302 45.292V47.052H172.902V45.292H172.302ZM172.602 47.352H173.562V46.752H172.602V47.352ZM173.262 47.052V47.34H173.862V47.052H173.262ZM173.562 47.04H172.602V47.64H173.562V47.04ZM172.302 47.34V49.292H172.902V47.34H172.302ZM172.302 49.292C172.302 49.9294 172.546 50.4785 173.01 50.9243L173.426 50.4917C173.074 50.1535 172.902 49.7586 172.902 49.292H172.302ZM173.013 50.9263C173.476 51.3635 174.012 51.6 174.618 51.6V51C174.185 51 173.792 50.8365 173.424 50.4897L173.013 50.9263ZM180.216 47.148L180.492 47.2652C180.556 47.1142 180.487 46.9397 180.337 46.8735L180.216 47.148ZM180.104 47.412L179.981 47.6858C180.055 47.7187 180.138 47.7207 180.213 47.6913C180.288 47.6618 180.348 47.6034 180.38 47.5292L180.104 47.412ZM177.88 47.86L178.094 48.07L178.096 48.0678L177.88 47.86ZM177.896 50.708L177.686 50.9223L177.896 50.708ZM180.736 50.708L180.528 50.4917L180.526 50.4937L180.736 50.708ZM181.344 45.292V44.992C181.178 44.992 181.044 45.1263 181.044 45.292H181.344ZM181.624 45.292H181.924C181.924 45.1263 181.789 44.992 181.624 44.992V45.292ZM180.928 50.924L180.721 50.7063L180.928 50.924ZM177.68 50.892L177.464 51.1003L177.466 51.1022L177.68 50.892ZM177.704 47.636L177.497 47.4183L177.495 47.4201L177.704 47.636ZM179.939 47.0308L179.827 47.2948L180.38 47.5292L180.492 47.2652L179.939 47.0308ZM180.226 47.1382C179.953 47.0157 179.647 46.952 179.32 46.952V47.552C179.568 47.552 179.79 47.6003 179.981 47.6858L180.226 47.1382ZM179.32 46.952C178.672 46.952 178.113 47.1839 177.663 47.6522L178.096 48.0678C178.43 47.7201 178.831 47.552 179.32 47.552V46.952ZM177.665 47.65C177.219 48.1054 176.996 48.6525 176.996 49.276H177.596C177.596 48.8115 177.756 48.4146 178.094 48.07L177.665 47.65ZM176.996 49.276C176.996 49.916 177.228 50.4734 177.686 50.9223L178.106 50.4937C177.764 50.1586 177.596 49.756 177.596 49.276H176.996ZM177.686 50.9223C178.139 51.3668 178.686 51.6 179.32 51.6V51C178.85 51 178.452 50.8332 178.106 50.4937L177.686 50.9223ZM179.32 51.6C179.946 51.6 180.493 51.3663 180.946 50.9223L180.526 50.4937C180.179 50.8337 179.781 51 179.32 51V51.6ZM180.944 50.9243C181.407 50.4791 181.644 49.9384 181.644 49.332H181.044C181.044 49.7656 180.88 50.1529 180.528 50.4917L180.944 50.9243ZM181.644 49.332V45.292H181.044V49.332H181.644ZM181.344 45.592H181.624V44.992H181.344V45.592ZM181.324 45.292V49.276H181.924V45.292H181.324ZM181.324 49.276C181.324 49.8527 181.123 50.325 180.721 50.7063L181.134 51.1417C181.66 50.643 181.924 50.0113 181.924 49.276H181.324ZM180.721 50.7063C180.311 51.0955 179.848 51.28 179.32 51.28V51.88C180.007 51.88 180.617 51.6325 181.134 51.1417L180.721 50.7063ZM179.32 51.28C178.753 51.28 178.286 51.0808 177.894 50.6818L177.466 51.1022C177.97 51.6152 178.59 51.88 179.32 51.88V51.28ZM177.896 50.6837C177.508 50.2816 177.316 49.8116 177.316 49.276H176.716C176.716 49.9724 176.972 50.5904 177.464 51.1003L177.896 50.6837ZM177.316 49.276C177.316 48.7001 177.515 48.2345 177.912 47.8519L177.495 47.4201C176.98 47.9175 176.716 48.5399 176.716 49.276H177.316ZM177.91 47.8537C178.322 47.463 178.786 47.272 179.32 47.272V46.672C178.622 46.672 178.013 46.929 177.497 47.4183L177.91 47.8537ZM179.32 47.272C179.613 47.272 179.866 47.3218 180.095 47.4225L180.337 46.8735C180.021 46.7342 179.683 46.672 179.32 46.672V47.272ZM185.126 51.036H185.426C185.426 50.8703 185.292 50.736 185.126 50.736V51.036ZM185.126 51.5V51.8C185.292 51.8 185.426 51.6657 185.426 51.5H185.126ZM184.662 51.5H184.362C184.362 51.6657 184.497 51.8 184.662 51.8V51.5ZM184.662 51.036V50.736C184.497 50.736 184.362 50.8703 184.362 51.036H184.662ZM184.826 51.036V51.5H185.426V51.036H184.826ZM185.126 51.2H184.662V51.8H185.126V51.2ZM184.962 51.5V51.036H184.362V51.5H184.962ZM184.662 51.336H185.126V50.736H184.662V51.336Z" fill="#908C88"/>
</g>
<defs>
<clipPath id="clip0_1_15">
<rect width="203" height="65" fill="white"/>
</clipPath>
</defs>
</svg>
