<svg xmlns="http://www.w3.org/2000/svg" version="1.1" xmlns:xlink="http://www.w3.org/1999/xlink" xmlns:svgjs="http://svgjs.dev/svgjs" width="1000" height="1000" viewBox="0 0 1000 1000"><g transform="matrix(1,0,0,1,0,0)"><svg viewBox="0 0 280 280" data-background-color="#111111" preserveAspectRatio="xMidYMid meet" height="1000" width="1000" xmlns="http://www.w3.org/2000/svg" xmlns:xlink="http://www.w3.org/1999/xlink"><g id="tight-bounds" transform="matrix(1,0,0,1,0,0)"><svg viewBox="0 0 280 280" height="280" width="280"><g><svg viewBox="0 0 280 280" height="280" width="280"><g><svg viewBox="0 0 280 280" height="280" width="280"><g id="textblocktransform"><svg viewBox="0 0 280 280" height="280" width="280" id="textblock"><g><svg viewBox="0 0 280 280" height="280" width="280"><g transform="matrix(1,0,0,1,74.00336708925556,74.00336708925556)"><svg viewBox="0 0 131.99326582148888 131.99326582148888" height="131.99326582148888" width="131.99326582148888"><g><circle r="66" cx="65.99663291074444" cy="65.99663291074444" fill="#7fdbff" data-fill-palette-color="accent"></circle></g></svg></g><g><path d="M27.402 110.725l-24.344-8.36 3.309-9.634c0.879-2.559 2.182-4.332 3.908-5.319 1.729-0.993 3.733-1.097 6.014-0.314v0c2.28 0.783 3.808 2.108 4.583 3.975 0.777 1.86 0.731 4.057-0.138 6.591v0l-2.337 6.803 9.977 3.426zM16.05 103.661l2.242-6.527c1.273-3.706 0.284-6.117-2.966-7.233v0c-3.199-1.099-5.435 0.205-6.707 3.911v0l-2.242 6.528z" fill="#ffffff" data-fill-palette-color="primary"></path><path d="M37.812 69.827l9.508 0.554-1.715 2.802-9.322-0.57c-1.131-0.064-2.046 0.11-2.746 0.522-0.694 0.415-1.366 1.154-2.017 2.217v0l-2.512 4.104 9.28 5.68-1.547 2.528-21.953-13.437 5.528-9.031c1.462-2.388 3.105-3.887 4.931-4.497 1.832-0.606 3.773-0.282 5.824 0.973v0c1.702 1.042 2.784 2.367 3.244 3.976 0.455 1.605 0.272 3.386-0.549 5.342v0c0.508-0.458 1.091-0.781 1.747-0.968 0.653-0.181 1.419-0.247 2.299-0.195zM26.892 78.161l3.849-6.289c1.042-1.702 1.466-3.19 1.272-4.464-0.189-1.27-1-2.344-2.434-3.221v0c-1.411-0.864-2.713-1.091-3.905-0.682-1.196 0.414-2.32 1.481-3.373 3.201v0l-3.85 6.289z" fill="#ffffff" data-fill-palette-color="primary"></path><path d="M67.596 50.34l-2.158 2.132-6.669-2.705-9.563 9.446 2.623 6.701-2.187 2.161-10.033-26.269 1.844-1.821zM42.981 43.347l5.239 13.353 8.048-7.95z" fill="#ffffff" data-fill-palette-color="primary"></path><path d="M77.396 44.059l-2.532 1.672-12.778-19.349-7.461 4.927-1.406-2.129 17.488-11.549 1.406 2.129-7.495 4.95z" fill="#ffffff" data-fill-palette-color="primary"></path><path d="M101.286 16.855l-4.262-10.566 2.749-1.108 9.629 23.87-2.748 1.108-4.413-10.938-14.283 5.762 4.413 10.938-2.749 1.109-9.629-23.87 2.748-1.109 4.263 10.566z" fill="#ffffff" data-fill-palette-color="primary"></path><path d="M139.269 25.16l-3.012 0.371-3.63-6.213-13.341 1.643-2.013 6.909-3.052 0.376 8.09-26.931 2.573-0.317zM124.041 4.594l-4.001 13.774 11.227-1.383z" fill="#ffffff" data-fill-palette-color="primary"></path><path d="M157.28 19.885l11.621-17.488 2.437 0.268-2.821 25.584-2.726-0.3 2.224-19.808-10.055 14.831-2.097-0.231-6.627-16.529-2.139 19.676-2.756-0.304 2.821-25.584 2.466 0.272z" fill="#ffffff" data-fill-palette-color="primary"></path><path d="M193.923 38.865c-3.595-1.78-5.994-4.174-7.195-7.182v0l2.065-1.545c0.659 1.522 1.48 2.784 2.464 3.787 0.983 1.002 2.262 1.893 3.834 2.671v0c1.855 0.918 3.462 1.265 4.821 1.041 1.359-0.224 2.362-0.99 3.01-2.299v0c0.377-0.762 0.445-1.502 0.202-2.22-0.242-0.718-0.686-1.416-1.329-2.093-0.641-0.668-1.552-1.485-2.732-2.451v0c-1.584-1.3-2.836-2.461-3.757-3.485-0.921-1.024-1.524-2.137-1.811-3.34-0.286-1.203-0.089-2.492 0.591-3.866v0c0.648-1.309 1.568-2.299 2.761-2.972 1.186-0.676 2.557-0.976 4.112-0.902 1.546 0.078 3.159 0.532 4.84 1.365v0c1.591 0.787 2.956 1.773 4.095 2.958 1.137 1.191 1.954 2.492 2.451 3.903v0l-2.038 1.558c-0.629-1.477-1.399-2.707-2.31-3.688-0.911-0.982-2.022-1.797-3.331-2.444v0c-1.789-0.885-3.378-1.201-4.766-0.947-1.386 0.248-2.413 1.048-3.081 2.398v0c-0.573 1.158-0.559 2.253 0.044 3.284 0.603 1.031 1.709 2.202 3.317 3.514v0c1.743 1.461 3.082 2.673 4.017 3.636 0.932 0.97 1.578 2.044 1.936 3.223 0.349 1.182 0.19 2.448-0.479 3.799v0c-0.648 1.309-1.556 2.283-2.724 2.922-1.178 0.643-2.541 0.913-4.09 0.811-1.555-0.105-3.194-0.583-4.917-1.436z" fill="#ffffff" data-fill-palette-color="primary"></path><path d="M230.918 46.828l7.098-8.911 2.318 1.846-16.035 20.134-2.318-1.847 7.348-9.226-12.048-9.594-7.347 9.226-2.319-1.847 16.035-20.134 2.319 1.847-7.098 8.912z" fill="#ffffff" data-fill-palette-color="primary"></path><path d="M242.391 83.977l-1.806-2.439 3.621-6.218-7.999-10.803-7.005 1.649-1.829-2.471 27.423-6.218 1.542 2.083zM252.793 60.597l-13.958 3.299 6.732 9.091z" fill="#ffffff" data-fill-palette-color="primary"></path><path d="M265.149 99.666l10.417-4.612 1.2 2.71-23.536 10.42-1.199-2.71 10.784-4.775-6.235-14.082-10.785 4.775-1.199-2.71 23.535-10.421 1.2 2.71-10.418 4.613z" fill="#ffffff" data-fill-palette-color="primary"></path><path d="M10.585 182.562l24.343-8.359 3.309 9.634c0.879 2.559 0.94 4.758 0.183 6.598-0.754 1.845-2.272 3.159-4.552 3.942v0c-2.28 0.783-4.3 0.676-6.058-0.32-1.756-0.99-3.07-2.752-3.94-5.286v0l-2.336-6.803-9.977 3.426zM23.881 181.162l2.241 6.527c1.273 3.706 3.534 5.001 6.784 3.885v0c3.199-1.099 4.162-3.501 2.889-7.206v0l-2.241-6.528z" fill="#ffffff" data-fill-palette-color="primary"></path><path d="M36.973 218.199l-4.819 8.215-1.715-2.802 4.748-8.042c0.571-0.978 0.833-1.872 0.784-2.683-0.054-0.807-0.406-1.742-1.056-2.804v0l-2.513-4.105-9.28 5.68-1.547-2.528 21.954-13.436 5.527 9.031c1.462 2.388 2.048 4.534 1.761 6.437-0.293 1.907-1.465 3.488-3.516 4.744v0c-1.702 1.042-3.375 1.402-5.016 1.079-1.636-0.326-3.139-1.298-4.508-2.918v0c0.177 0.661 0.2 1.327 0.068 1.996-0.135 0.664-0.426 1.376-0.872 2.136zM34.519 204.683l3.85 6.289c1.042 1.702 2.174 2.757 3.396 3.163 1.217 0.41 2.542 0.176 3.976-0.702v0c1.411-0.864 2.206-1.919 2.384-3.167 0.175-1.254-0.264-2.74-1.316-4.46v0l-3.85-6.289z" fill="#ffffff" data-fill-palette-color="primary"></path><path d="M55.101 249.822l-2.159-2.132 2.623-6.701-9.563-9.446-6.669 2.705-2.187-2.16 26.143-10.356 1.844 1.822zM61.79 225.123l-13.287 5.403 8.048 7.949z" fill="#ffffff" data-fill-palette-color="primary"></path><path d="M67.597 258.291l-2.532-1.672 12.778-19.349-7.461-4.927 1.407-2.129 17.487 11.549-1.406 2.129-7.495-4.95z" fill="#ffffff" data-fill-palette-color="primary"></path><path d="M105.369 260.538l4.262-10.565 2.748 1.108-9.629 23.87-2.749-1.108 4.413-10.938-14.283-5.762-4.412 10.938-2.749-1.109 9.629-23.87 2.749 1.109-4.262 10.565z" fill="#ffffff" data-fill-palette-color="primary"></path><path d="M137.094 280l-3.011-0.371-2.013-6.909-13.342-1.643-3.63 6.213-3.051-0.376 14.385-24.161 2.572 0.317zM127.314 256.354l-7.225 12.39 11.227 1.383z" fill="#ffffff" data-fill-palette-color="primary"></path><path d="M157.676 271.221l7.532-19.6 2.437-0.268 2.821 25.584-2.727 0.3-2.144-19.816-6.582 16.665-2.097 0.231-10.069-14.688 2.199 19.669-2.756 0.304-2.821-25.584 2.466-0.272z" fill="#ffffff" data-fill-palette-color="primary"></path><path d="M202.07 265.105c-3.595 1.78-6.954 2.235-10.074 1.365v0l0.024-2.578c1.61 0.399 3.112 0.511 4.505 0.337 1.394-0.174 2.877-0.65 4.449-1.429v0c1.855-0.918 3.105-1.985 3.751-3.202 0.646-1.216 0.645-2.479-0.003-3.788v0c-0.377-0.762-0.925-1.265-1.643-1.507-0.718-0.242-1.541-0.313-2.47-0.212-0.92 0.104-2.122 0.333-3.606 0.686v0c-1.994 0.471-3.677 0.763-5.049 0.874-1.372 0.111-2.624-0.084-3.754-0.585-1.13-0.502-2.036-1.44-2.716-2.815v0c-0.648-1.309-0.878-2.641-0.689-3.997 0.182-1.353 0.774-2.625 1.776-3.816 0.999-1.182 2.339-2.189 4.02-3.021v0c1.591-0.787 3.203-1.275 4.836-1.464 1.636-0.182 3.166-0.043 4.59 0.419v0l0.003 2.565c-1.556-0.396-3.001-0.529-4.334-0.399-1.333 0.129-2.654 0.518-3.963 1.166v0c-1.789 0.885-3.003 1.957-3.643 3.215-0.643 1.252-0.63 2.554 0.038 3.905v0c0.573 1.158 1.453 1.81 2.639 1.956 1.186 0.146 2.787-0.023 4.805-0.506v0c2.219-0.5 3.995-0.83 5.328-0.99 1.337-0.153 2.582-0.015 3.736 0.415 1.151 0.439 2.061 1.334 2.73 2.684v0c0.648 1.309 0.872 2.621 0.672 3.939-0.203 1.326-0.815 2.574-1.835 3.744-1.026 1.173-2.401 2.186-4.123 3.038z" fill="#ffffff" data-fill-palette-color="primary"></path><path d="M224.121 232.148l-7.098-8.911 2.318-1.847 16.036 20.134-2.319 1.847-7.348-9.226-12.047 9.594 7.348 9.226-2.318 1.847-16.035-20.134 2.318-1.847 7.097 8.912z" fill="#ffffff" data-fill-palette-color="primary"></path><path d="M256.681 214.117l-1.806 2.438-7.004-1.649-8 10.803 3.621 6.219-1.83 2.47-13.947-24.416 1.543-2.083zM231.284 210.987l7.227 12.389 6.732-9.091z" fill="#ffffff" data-fill-palette-color="primary"></path><path d="M255.171 183.428l-10.417-4.612 1.2-2.71 23.535 10.42-1.2 2.71-10.784-4.775-6.236 14.083 10.785 4.775-1.2 2.71-23.535-10.42 1.2-2.71 10.417 4.612z" fill="#ffffff" data-fill-palette-color="primary"></path><path d="M3.876 143.756c0-5.493 4.453-9.945 9.945-9.945 5.493 0 9.945 4.453 9.945 9.945 0 5.493-4.453 9.945-9.945 9.945-5.493 0-9.945-4.453-9.945-9.945z" fill="#ffffff" data-fill-palette-color="primary"></path><path d="M257.051 143.756c0-5.493 4.453-9.945 9.945-9.945 5.493 0 9.945 4.453 9.946 9.945 0 5.493-4.453 9.945-9.946 9.945-5.493 0-9.945-4.453-9.945-9.945z" fill="#ffffff" data-fill-palette-color="primary"></path></g></svg></g></svg></g></svg></g></svg></g><defs></defs></svg><rect width="280" height="280" fill="none" stroke="none" visibility="hidden"></rect></g></svg></g></svg>